<svg fill="#59596e" viewBox="0 0 24 24" xmlns="http://www.w3.org/2000/svg"><path d="m21.808594 0c-.156375 0-.312641.0601875-.431641.1796875l-1.222656 1.2207031 2.445312 2.4453125 1.220703-1.2226562c.239001-.239.239001-.6252813 0-.8632813l-1.580078-1.5800781c-.1195-.1195-.275265-.1796875-.43164-.1796875zm-2.519532 2.265625-7.289062 7.2910156v2.4433594h2.443359l7.291016-7.2910156zm-14.289062.734375c-1.105 0-2 .895-2 2v14c0 1.105.895 2 2 2h14c1.105 0 2-.895 2-2v-9c0-.552-.448-1-1-1-.553 0-1 .448-1 1l-.001953 9h-13.998047v-12h6.728516l4-4z" fill="#fff"/></svg>