<svg fill="#59596e" viewBox="0 0 24 24" xmlns="http://www.w3.org/2000/svg"><path d="m10 5.3417969c-.255875 0-.5120312.0994218-.7070312.2949219l-5.65625 5.6562502c-.3910001.391-.3910001 1.024062 0 1.414062l5.65625 5.65625c.391.391 1.0240622.391 1.4140622 0l.085938-.085937c.391-.391.391-1.024063 0-1.414063l-3.8632815-3.863281h13.0703125c.552 0 1-.448 1-1s-.448-1-1-1h-13.0703125l3.8632815-3.8632812c.391-.3910001.391-1.0240625 0-1.4140626l-.085938-.0859374c-.1955-.1955001-.451156-.2949219-.707031-.2949219z" fill="#fff"/></svg>