<svg fill="#59596e" viewBox="0 0 24 24" xmlns="http://www.w3.org/2000/svg"><path d="m5 3c-1.105 0-2 .895-2 2v2 12c0 1.093063.9069372 2 2 2h14c1.093063 0 2-.906937 2-2v-13-1c0-1.105-.895-2-2-2zm0 4h14v12h-14zm5 3.085938c-.181 0-.362.069031-.5.207031l-2 2c-.391.39-.391 1.023062 0 1.414062l2 2c.276.276.724.276 1 0s.276-.724 0-1l-1.7070312-1.707031 1.7070312-1.707031c.276-.276.276-.724 0-1-.138-.138-.319-.207031-.5-.207031zm4 0c-.181 0-.362.069031-.5.207031-.276.276-.276.724 0 1l1.707031 1.707031-1.707031 1.707031c-.276.276-.276.724 0 1s.724.276 1 0l2-2c.391-.391.391-1.024062 0-1.414062l-2-2c-.138-.138-.319-.207031-.5-.207031z" fill="#59596e"/></svg>