<svg viewBox="0 0 24 24" xmlns="http://www.w3.org/2000/svg"><path d="m19 3h-14c-1.103 0-2 .897-2 2v14c0 1.103.897 2 2 2h14c1.103 0 2-.897 2-2v-14c0-1.103-.897-2-2-2zm-8.422 11.652-.021.021c-.308.305-.804.304-1.111-.002l-2.096-2.096c-.307-.307-.307-.806 0-1.113l2.109-2.109c.302-.302.789-.308 1.098-.015l.014.013c.326.309.328.828.003 1.139l-1.574 1.51 1.572 1.529c.316.307.318.813.006 1.123zm2.866-.018-.039-.041c-.297-.316-.283-.812.032-1.111l1.563-1.482-1.556-1.518c-.316-.309-.316-.817-.001-1.126.308-.302.802-.299 1.107.006l2.1 2.1c.307.307.307.806 0 1.113l-2.077 2.077c-.313.313-.825.305-1.129-.018z" fill="#272c35"/></svg>